# Blender v3.0.1 OBJ File: ''
# www.blender.org
mtllib face.mtl
o neutral
v 0.000000 9.434121 0.815014
v 4.082452 10.848580 -0.520998
v 0.000000 11.326913 0.124482
v -4.082452 10.848580 -0.520998
v -8.797132 -0.001288 -2.041181
v -8.410706 2.493890 -2.693888
v -9.052458 5.749658 -2.394262
v 7.556849 -0.652747 -0.732448
v 8.794696 -2.750082 -3.106497
v 8.797132 -0.001288 -2.041181
v 6.753390 -5.720572 -2.255958
v 7.150752 -5.943304 -4.515050
v 4.602482 9.088906 0.030703
v 8.424852 8.964518 -3.296281
v 9.052458 5.749658 -2.394262
v 8.410706 2.493890 -2.693888
v -2.886132 -6.847923 0.824818
v -5.155760 -6.700538 -0.833512
v -3.407098 -7.781303 0.145968
v -7.556849 -0.652747 -0.732448
v -8.794696 -2.750082 -3.106497
v -7.719805 -3.252401 -1.186842
v 6.055013 -2.621634 0.476121
v 5.705304 -0.797736 0.180282
v 3.995363 -5.603996 0.666042
v 5.155760 -6.700538 -0.833512
v 7.360543 3.652322 -1.631997
v 7.390072 1.674127 -1.418469
v -3.995363 -5.603996 0.666042
v -7.150752 -5.943304 -4.515050
v -3.596618 0.829614 -0.437915
v -5.591395 1.069100 -0.490546
v -3.444880 -1.138480 0.992734
v -6.055013 -2.621634 0.476121
v -5.910678 -5.167426 -0.341196
v -5.705304 -0.797736 0.180282
v -7.390072 1.674127 -1.418469
v -7.360543 3.652322 -1.631997
v 0.000000 7.572900 1.253966
v -2.343657 6.310693 1.272850
v 2.343657 6.310693 1.272850
v 5.326699 7.453713 0.324931
v 0.000000 4.812814 1.260847
v 7.719805 -3.252401 -1.186842
v 4.411472 6.492745 0.911604
v 6.302006 6.557946 0.174876
v 8.208156 8.048287 -2.402719
v 7.973958 6.351449 -1.030012
v 8.047310 7.118295 -1.581201
v 5.591395 1.069100 -0.490546
v 3.596618 0.829614 -0.437915
v -6.753390 -5.720572 -2.255958
v -4.602482 9.088906 0.030703
v -8.424852 8.964518 -3.296281
v -8.208156 8.048287 -2.402719
v -4.885316 4.010552 -0.517029
v -4.411472 6.492745 0.911604
v -6.302006 6.557946 0.174876
v 0.857275 0.879678 0.720934
v 0.000000 1.356072 0.867628
v -4.773083 -4.477271 0.789196
v -0.857275 0.879678 0.720934
v 2.856857 2.893472 -0.368961
v -7.973958 6.351449 -1.030012
v -8.047310 7.118295 -1.581201
v -5.326699 7.453713 0.324931
v -2.856857 2.893472 -0.368961
v -4.175389 -2.402656 1.315301
v -1.969818 -2.323219 2.923137
v -1.171026 -7.613380 1.356129
v -1.370847 -8.853416 0.987318
v 1.370847 -8.853416 0.987318
v -1.438361 -5.809165 1.943630
v 2.886132 -6.847923 0.824818
v 3.407098 -7.781303 0.145968
v 5.910678 -5.167426 -0.341196
v -1.873742 -3.542289 2.332596
v -0.861310 -0.582984 1.769948
v 4.885316 4.010552 -0.517029
v 1.171026 -7.613380 1.356129
v 3.295065 -5.260367 0.507546
v 4.773083 -4.477271 0.789196
v 1.969818 -2.323219 2.923137
v 1.873742 -3.542289 2.332596
v 4.175389 -2.402656 1.315301
v 3.444880 -1.138480 0.992734
v -3.295065 -5.260367 0.507546
v 0.000000 -0.426078 1.858115
v 1.438361 -5.809165 1.943630
v 2.458341 -5.016304 1.660046
v 1.502694 -4.796363 2.384298
v 0.861310 -0.582984 1.769948
v 0.000000 -1.789558 4.337283
v 0.000000 -4.839012 2.717983
v -1.502694 -4.796363 2.384298
v -2.415105 -5.563453 1.365789
v -2.458341 -5.016304 1.660046
v 2.415105 -5.563453 1.365789
v 0.000000 -5.982917 2.244963
vn 0.1854 0.3368 0.9231
vn -0.1854 0.3368 0.9231
vn -0.5324 0.2746 0.8007
vn 0.1715 0.1723 0.9700
vn 0.7068 0.0746 0.7035
vn 0.7314 -0.0232 0.6816
vn 0.7612 -0.2349 0.6045
vn 0.7376 -0.0517 0.6733
vn 0.4712 -0.8658 0.1682
vn 0.7533 -0.6283 0.1944
vn 0.8334 -0.5162 0.1975
vn 0.4862 0.3914 0.7813
vn 0.5927 0.4561 0.6639
vn 0.3999 0.3797 0.8342
vn 0.3998 0.3797 0.8342
vn 0.1827 0.3429 0.9214
vn -0.7068 0.0746 0.7035
vn -0.5704 -0.3323 0.7512
vn -0.5680 -0.3464 0.7466
vn -0.5829 -0.2394 0.7765
vn -0.8754 -0.0295 0.4825
vn -0.7612 -0.2349 0.6045
vn 0.5145 -0.0563 0.8556
vn 0.4169 0.2229 0.8812
vn 0.3905 0.2524 0.8853
vn 0.8413 0.2083 0.4988
vn 0.0757 -0.9909 0.1110
vn 0.6401 -0.1159 0.7595
vn 0.6690 0.0380 0.7423
vn 0.5879 -0.1883 0.7868
vn 0.6923 0.2116 0.6899
vn 0.6507 0.2849 0.7038
vn 0.6328 0.2604 0.7293
vn -0.5567 -0.4037 0.7260
vn -0.8413 0.2083 0.4988
vn -0.1227 0.2518 0.9600
vn 0.0152 0.3335 0.9426
vn 0.0495 0.5898 0.8061
vn -0.6884 -0.0828 0.7206
vn -0.6273 -0.2701 0.7304
vn -0.2876 0.3394 0.8956
vn -0.2723 0.3401 0.9001
vn -0.3110 0.1956 0.9301
vn -0.4127 0.2477 0.8765
vn -0.4748 0.2687 0.8381
vn -0.4169 0.2229 0.8812
vn -0.6245 0.2402 0.7432
vn -0.5325 0.2746 0.8007
vn -0.4103 0.1577 0.8982
vn -0.5879 -0.1883 0.7868
vn -0.7518 0.0818 0.6542
vn -0.4231 0.1078 0.8996
vn -0.0588 0.1101 0.9922
vn -0.1439 0.2814 0.9487
vn 0.0000 0.0150 0.9999
vn 0.0216 0.2322 0.9724
vn 0.1735 0.2434 0.9543
vn -0.0215 0.2435 0.9697
vn 0.1718 0.2477 0.9535
vn -0.2146 -0.1459 0.9657
vn 0.0000 -0.0080 1.0000
vn -0.1866 -0.2994 0.9357
vn 0.8183 -0.4661 0.3363
vn 0.8055 -0.0527 0.5903
vn 0.8754 -0.0295 0.4825
vn 0.7799 -0.0600 0.6230
vn 0.6884 -0.0828 0.7206
vn 0.2728 0.0194 0.9619
vn 0.3547 -0.3075 0.8830
vn 0.2399 0.3291 0.9133
vn 0.1908 -0.3383 0.9215
vn 0.1416 0.2772 0.9503
vn 0.1817 -0.1289 0.9749
vn 0.1665 0.3934 0.9042
vn 0.5828 0.4713 0.6620
vn 0.5899 0.3886 0.7078
vn 0.6778 -0.3034 0.6697
vn 0.8085 0.2905 0.5118
vn 0.8088 0.2902 0.5114
vn 0.7894 0.3068 0.5318
vn 0.5870 0.2130 0.7811
vn 0.5497 0.4794 0.6841
vn 0.5558 -0.2032 0.8061
vn 0.5497 0.4782 0.6849
vn -0.8842 -0.2139 -0.4153
vn 0.3003 0.0794 0.9505
vn 0.4284 0.1033 0.8977
vn 0.4231 0.1078 0.8996
vn -0.0157 0.3373 0.9413
vn 0.3757 0.3060 0.8748
vn 0.3961 0.3318 0.8562
vn 0.3770 0.3077 0.8736
vn 0.3610 0.2874 0.8872
vn -0.7377 -0.5281 0.4206
vn -0.4035 -0.8163 0.4134
vn -0.5721 -0.6858 0.4499
vn -0.4713 -0.8658 0.1682
vn -0.7532 -0.6283 0.1945
vn -0.0757 -0.9909 0.1110
vn -0.7959 -0.4745 0.3761
vn -0.8183 -0.4661 0.3363
vn -0.8334 -0.5162 0.1975
vn -0.7532 -0.6283 0.1944
vn -0.4175 0.3684 0.8306
vn -0.3998 0.3797 0.8342
vn -0.6103 0.3955 0.6864
vn -0.5798 0.4945 0.6476
vn -0.3422 -0.4188 0.8411
vn -0.3241 -0.4116 0.8518
vn -0.2530 0.0694 0.9650
vn 0.2661 0.1877 0.9455
vn 0.1066 -0.1124 0.9879
vn 0.1901 0.0400 0.9809
vn -0.4783 -0.4063 0.7786
vn -0.5873 -0.2774 0.7604
vn -0.5463 -0.3477 0.7620
vn -0.2582 0.2405 0.9357
vn -0.1901 0.0400 0.9809
vn -0.1066 -0.1124 0.9879
vn 0.0291 -0.0229 0.9993
vn 0.1918 -0.4015 0.8956
vn 0.4132 -0.1480 0.8985
vn 0.2446 -0.3898 0.8878
vn 0.3566 -0.2367 0.9038
vn 0.3890 0.1089 0.9148
vn 0.4888 -0.0132 0.8723
vn -0.5514 0.4774 0.6842
vn -0.5518 0.4772 0.6840
vn -0.5508 0.4777 0.6845
vn 0.8842 -0.2139 -0.4153
vn -0.8088 0.2902 0.5114
vn -0.6778 -0.3034 0.6697
vn -0.5336 -0.2978 0.7915
vn -0.5783 0.4163 0.7016
vn -0.5764 0.4205 0.7006
vn -0.5479 0.4820 0.6838
vn -0.5899 0.3886 0.7078
vn -0.3470 0.2253 0.9104
vn -0.1714 0.2644 0.9491
vn -0.1718 0.2477 0.9535
vn -0.1180 0.4332 0.8936
vn -0.2941 0.0736 0.9529
vn -0.0600 0.0234 0.9979
vn -0.3890 0.1089 0.9148
vn -0.2504 -0.4187 0.8729
vn -0.1918 -0.4015 0.8956
vn -0.2233 -0.4109 0.8839
vn -0.3001 -0.4322 0.8504
vn -0.4132 -0.1480 0.8985
vn -0.4888 -0.0132 0.8723
vn -0.3933 -0.1179 0.9118
vn -0.5871 0.1299 0.7990
vn -0.5879 -0.0356 0.8082
vn -0.5825 0.1930 0.7896
vn -0.5271 0.4830 0.6992
vn -0.2621 0.3780 0.8879
vn -0.4190 0.2231 0.8802
vn 0.0000 -0.2851 0.9585
vn -0.4146 -0.3442 0.8424
vn -0.4125 -0.3367 0.8464
vn -0.4174 -0.3544 0.8368
vn -0.4210 -0.3680 0.8290
vn -0.4569 -0.1851 0.8700
vn 0.5087 -0.3487 0.7872
vn 0.5238 -0.2605 0.8111
vn 0.5680 -0.3464 0.7466
vn 0.5680 -0.3463 0.7466
vn 0.5567 -0.4037 0.7260
vn 0.7367 -0.4902 0.4658
vn 0.6108 -0.2732 0.7432
vn 0.6273 -0.2701 0.7304
vn 0.4035 -0.8163 0.4134
vn -0.3429 -0.4313 0.8345
vn -0.3999 -0.4249 0.8121
vn -0.3102 -0.4341 0.8457
vn -0.3429 0.6608 0.6676
vn -0.3404 0.5419 0.7684
vn -0.3427 0.5391 0.7694
vn -0.3468 0.5339 0.7712
vn -0.3339 0.5500 0.7655
vn 0.2530 0.0694 0.9650
vn 0.0600 0.0234 0.9979
vn 0.4780 -0.4678 0.7435
vn 0.3602 -0.2803 0.8898
vn 0.3106 -0.4289 0.8483
vn 0.3001 -0.4322 0.8504
vn 0.4499 -0.2296 0.8631
vn 0.4569 -0.1851 0.8700
vn 0.1947 0.7092 0.6776
vn -0.1103 0.2220 0.9688
vn 0.3621 -0.3214 0.8750
vn 0.3102 -0.4341 0.8457
vn 0.3348 -0.3830 0.8609
vn 0.5129 -0.2141 0.8313
vn 0.3632 0.1514 0.9193
vn 0.5871 0.1299 0.7990
vn 0.5408 0.3544 0.7629
vn 0.5879 -0.0356 0.8082
vn 0.4379 0.5775 0.6890
vn 0.2021 0.5656 0.7995
vn 0.2621 0.3780 0.8879
vn -0.3450 0.0977 0.9335
vn 0.1103 0.2220 0.9688
vn -0.5074 0.0413 0.8607
vn -0.2069 -0.8684 0.4507
vn -0.2740 -0.5578 0.7834
vn -0.1947 0.7092 0.6776
vn -0.2553 0.5342 0.8059
vn -0.1861 0.5730 0.7982
vn 0.3869 0.4480 0.8060
vn 0.4528 -0.3013 0.8392
vn 0.4125 -0.3367 0.8464
vn 0.4400 -0.2988 0.8468
vn 0.1291 -0.9469 0.2943
vn 0.4035 -0.5421 0.7371
vn 0.3913 -0.2490 0.8859
vn 0.5491 -0.2452 0.7990
vn 0.5779 -0.1378 0.8044
vn 0.5535 -0.2304 0.8003
vn 0.5051 -0.3711 0.7792
vn 0.2847 0.5592 0.7786
vn 0.3233 0.5521 0.7686
vn 0.1861 0.5730 0.7982
vn 0.3339 0.5500 0.7655
vn 0.3468 0.5339 0.7712
vn 0.4372 0.6735 0.5961
vn 0.5874 0.5159 0.6236
vn 0.4526 -0.4174 0.7880
vn -0.4316 0.7436 0.5107
vn -0.4242 0.7564 0.4978
vn -0.5417 0.6761 0.4995
vn 0.0000 0.8762 0.4819
vn 0.2045 0.8577 0.4717
vn -0.4526 -0.4174 0.7880
vn 0.0000 -0.7528 0.6582
vn -0.0223 0.2551 0.9667
vn -0.0646 0.1973 0.9782
vn -0.2174 -0.0241 0.9758
vn 0.0000 0.2849 0.9586
vn 0.2174 -0.0241 0.9758
vn -0.2237 -0.3835 0.8960
vn -0.2094 -0.4013 0.8917
vn -0.2200 -0.3881 0.8950
vn -0.5363 -0.2085 0.8179
vn -0.5402 -0.2861 0.7914
vn -0.5404 -0.3643 0.7585
vn -0.5317 -0.1557 0.8325
vn -0.7047 -0.0399 0.7084
vn -0.4287 -0.2855 0.8571
vn -0.5702 -0.1693 0.8038
vn -0.4443 -0.2200 0.8684
vn -0.4274 -0.7702 0.4734
vn -0.7101 -0.3762 0.5952
vn -0.4731 -0.4460 0.7598
vn 0.7170 -0.1613 0.6782
vn 0.7116 -0.0948 0.6961
vn 0.7101 -0.3762 0.5952
vn 0.5384 -0.2333 0.8098
vn 0.5372 -0.4320 0.7244
vn 0.7047 -0.0399 0.7084
vn 0.2340 -0.4004 0.8860
vn 0.2112 -0.3735 0.9033
vn -0.2332 -0.3716 0.8986
vn 0.0000 -0.4066 0.9136
vn 0.0736 -0.4360 0.8969
vn 0.2317 -0.3321 0.9144
vn -0.2317 -0.3321 0.9144
vn -0.0736 -0.4360 0.8969
usemtl Default_OBJ
s 1
f 1//1 2//1 3//1
f 1//2 3//2 4//2
f 5//3 6//4 7//5
f 8//6 9//7 10//8
f 11//9 12//10 9//11
f 13//12 14//13 2//14
f 13//12 2//15 1//16
f 15//17 16//17 10//17
f 17//18 18//19 19//20
f 20//21 21//21 22//21
f 20//22 5//22 21//22
f 23//23 8//24 24//25
f 25//26 26//26 12//26
f 25//27 12//10 11//9
f 27//28 16//29 15//30
f 28//31 16//29 27//28
f 28//31 10//32 16//29
f 28//33 8//6 10//8
f 29//34 18//19 17//18
f 29//35 30//35 18//35
f 31//36 32//37 33//38
f 34//39 20//39 22//39
f 34//40 22//40 35//40
f 36//41 33//42 32//43
f 36//44 20//45 34//46
f 37//47 6//4 5//48
f 37//47 5//48 20//45
f 37//49 36//41 32//43
f 37//47 20//45 36//44
f 38//50 7//50 6//50
f 38//51 6//4 37//47
f 38//52 37//49 32//43
f 39//53 40//54 41//55
f 39//56 13//57 1//58
f 39//56 42//59 13//57
f 43//60 41//61 40//62
f 44//63 11//63 9//63
f 44//64 9//65 8//66
f 44//64 8//66 23//67
f 45//68 46//69 42//70
f 45//71 39//72 41//73
f 45//68 42//70 39//74
f 47//75 13//12 42//76
f 47//75 14//13 13//12
f 48//77 27//77 15//77
f 48//78 15//79 49//80
f 48//81 42//82 46//83
f 48//81 47//84 42//82
f 48//78 49//80 47//85
f 50//86 28//87 27//88
f 50//89 51//89 24//89
f 50//90 24//91 8//92
f 50//90 8//92 28//93
f 52//94 29//95 35//96
f 52//97 30//98 29//99
f 52//94 35//96 22//100
f 52//94 22//100 21//101
f 52//97 21//102 30//103
f 53//104 4//105 54//106
f 53//107 54//107 55//107
f 53//104 1//58 4//105
f 53//104 39//56 1//58
f 56//108 57//108 58//108
f 56//109 58//109 38//109
f 56//110 38//52 32//43
f 59//111 43//112 60//113
f 61//114 34//115 35//116
f 62//117 60//118 43//119
f 63//120 51//120 50//120
f 63//121 45//71 41//73
f 63//122 41//123 43//124
f 63//125 59//125 51//125
f 63//122 43//124 59//126
f 64//127 58//128 55//129
f 64//127 55//129 65//130
f 64//131 65//131 7//131
f 64//132 7//132 38//132
f 64//133 38//133 58//133
f 66//134 55//135 58//136
f 66//134 53//137 55//135
f 66//138 58//138 57//138
f 66//139 39//53 53//140
f 66//141 57//141 40//141
f 66//139 40//54 39//53
f 67//142 32//37 31//36
f 67//143 56//110 32//43
f 67//142 31//36 62//144
f 67//145 40//146 57//147
f 67//145 57//147 56//148
f 67//149 43//60 40//62
f 67//149 62//150 43//60
f 68//151 34//151 61//151
f 68//152 61//153 69//154
f 68//152 69//154 33//155
f 68//156 33//156 36//156
f 68//157 36//157 34//157
f 70//158 71//158 72//158
f 70//159 73//160 17//161
f 70//159 17//161 19//162
f 70//163 19//163 71//163
f 74//164 75//165 26//166
f 74//164 26//167 25//168
f 76//169 11//169 44//169
f 76//170 44//171 23//23
f 76//172 25//172 11//172
f 77//173 69//174 61//175
f 78//176 33//176 69//176
f 78//177 31//178 33//179
f 78//177 62//180 31//178
f 79//181 50//86 27//88
f 79//181 63//182 50//86
f 79//183 48//81 46//83
f 79//184 27//184 48//184
f 79//185 46//69 45//68
f 79//185 45//68 63//186
f 80//187 72//188 75//165
f 80//187 75//165 74//164
f 80//158 70//158 72//158
f 81//189 25//189 76//189
f 81//190 74//190 25//190
f 82//191 83//192 84//193
f 82//194 76//170 23//23
f 85//195 23//23 24//25
f 85//195 82//194 23//23
f 85//196 83//197 82//198
f 86//199 83//197 85//196
f 86//200 24//200 51//200
f 86//201 85//195 24//25
f 87//202 29//203 17//204
f 87//205 35//206 29//207
f 88//208 62//117 78//209
f 88//210 59//111 60//113
f 88//208 60//118 62//117
f 89//211 80//212 74//213
f 90//214 81//214 76//214
f 90//215 76//215 82//215
f 90//216 82//191 84//193
f 90//217 84//218 91//219
f 90//217 91//219 89//220
f 92//221 59//222 88//223
f 92//221 51//224 59//222
f 92//225 86//225 51//225
f 92//226 83//197 86//199
f 93//227 84//228 83//197
f 93//229 78//230 69//231
f 93//229 88//232 78//230
f 93//227 83//197 92//226
f 93//229 92//233 88//232
f 93//234 69//174 77//173
f 93//235 77//235 84//235
f 94//236 77//237 95//238
f 94//236 84//239 77//237
f 94//240 91//240 84//240
f 94//241 95//242 73//243
f 96//244 73//245 95//246
f 96//244 17//247 73//245
f 96//248 87//202 17//204
f 97//249 95//250 77//251
f 97//249 77//251 61//114
f 97//252 87//205 96//253
f 97//249 96//254 95//250
f 97//249 61//114 35//116
f 97//252 35//206 87//205
f 98//255 81//256 90//257
f 98//258 90//259 89//211
f 98//255 74//260 81//256
f 98//258 89//211 74//213
f 99//261 89//261 91//261
f 99//262 91//262 94//262
f 99//263 94//241 73//243
f 99//264 80//265 89//266
f 99//264 73//267 70//268
f 99//264 70//268 80//265
